<mxfile host="app.diagrams.net" modified="2023-05-03T14:44:29.213Z" agent="Mozilla/5.0 (Macintosh; Intel Mac OS X 10_15_7) AppleWebKit/605.1.15 (KHTML, like Gecko) Version/14.1.1 Safari/605.1.15" etag="j6inAdOiZosCiPTHPEVW" version="21.2.6" type="device">
  <diagram name="Pagina-1" id="MeMB3YuaQJkK4BYeQOrN">
    <mxGraphModel dx="954" dy="534" grid="1" gridSize="10" guides="1" tooltips="1" connect="1" arrows="1" fold="1" page="1" pageScale="1" pageWidth="650" pageHeight="700" math="0" shadow="0">
      <root>
        <mxCell id="0" />
        <mxCell id="1" parent="0" />
        <mxCell id="lOXoc57yCbOqRMFnZguG-1" value="Clients" style="rounded=1;whiteSpace=wrap;html=1;fillColor=#f5f5f5;fontColor=#333333;strokeColor=#666666;" parent="1" vertex="1">
          <mxGeometry x="248" y="90" width="120" height="60" as="geometry" />
        </mxCell>
        <mxCell id="lOXoc57yCbOqRMFnZguG-2" value="ServerMaster" style="rounded=1;whiteSpace=wrap;html=1;fillColor=#ffe6cc;strokeColor=#d79b00;" parent="1" vertex="1">
          <mxGeometry x="193" y="280" width="230" height="100" as="geometry" />
        </mxCell>
        <mxCell id="lOXoc57yCbOqRMFnZguG-4" value="ServerReplica&lt;br&gt;(ID = 0)" style="rounded=1;whiteSpace=wrap;html=1;fillColor=#dae8fc;strokeColor=#6c8ebf;" parent="1" vertex="1">
          <mxGeometry x="49" y="510" width="120" height="60" as="geometry" />
        </mxCell>
        <mxCell id="lOXoc57yCbOqRMFnZguG-5" value="ServerReplica&lt;br&gt;(ID = 1)" style="rounded=1;whiteSpace=wrap;html=1;fillColor=#dae8fc;strokeColor=#6c8ebf;" parent="1" vertex="1">
          <mxGeometry x="248" y="510" width="120" height="60" as="geometry" />
        </mxCell>
        <mxCell id="lOXoc57yCbOqRMFnZguG-6" value="ServerReplica&lt;br&gt;(ID = 2)" style="rounded=1;whiteSpace=wrap;html=1;fillColor=#dae8fc;strokeColor=#6c8ebf;" parent="1" vertex="1">
          <mxGeometry x="449" y="510" width="120" height="60" as="geometry" />
        </mxCell>
        <mxCell id="lOXoc57yCbOqRMFnZguG-13" value="&lt;b style=&quot;border-color: var(--border-color);&quot;&gt;&lt;font style=&quot;border-color: var(--border-color); font-size: 15px;&quot; color=&quot;#ff3333&quot;&gt;(5)&lt;/font&gt;&lt;/b&gt;" style="endArrow=classic;html=1;rounded=0;exitX=1;exitY=0.5;exitDx=0;exitDy=0;entryX=0;entryY=0.5;entryDx=0;entryDy=0;endFill=1;" parent="1" source="lOXoc57yCbOqRMFnZguG-4" target="lOXoc57yCbOqRMFnZguG-5" edge="1">
          <mxGeometry width="50" height="50" relative="1" as="geometry">
            <mxPoint x="389" y="510" as="sourcePoint" />
            <mxPoint x="439" y="460" as="targetPoint" />
          </mxGeometry>
        </mxCell>
        <mxCell id="lOXoc57yCbOqRMFnZguG-15" value="" style="endArrow=classic;html=1;rounded=0;exitX=0.5;exitY=1;exitDx=0;exitDy=0;entryX=0.5;entryY=1;entryDx=0;entryDy=0;endFill=1;" parent="1" source="lOXoc57yCbOqRMFnZguG-4" target="lOXoc57yCbOqRMFnZguG-6" edge="1">
          <mxGeometry width="50" height="50" relative="1" as="geometry">
            <mxPoint x="174" y="550" as="sourcePoint" />
            <mxPoint x="258" y="550" as="targetPoint" />
            <Array as="points">
              <mxPoint x="109" y="640" />
              <mxPoint x="309" y="640" />
              <mxPoint x="509" y="640" />
            </Array>
          </mxGeometry>
        </mxCell>
        <mxCell id="lOXoc57yCbOqRMFnZguG-22" value="" style="shape=cylinder3;whiteSpace=wrap;html=1;boundedLbl=1;backgroundOutline=1;size=4;fillColor=#dae8fc;strokeColor=#6c8ebf;" parent="1" vertex="1">
          <mxGeometry x="169" y="570" width="24" height="30" as="geometry" />
        </mxCell>
        <mxCell id="lOXoc57yCbOqRMFnZguG-23" value="" style="shape=cylinder3;whiteSpace=wrap;html=1;boundedLbl=1;backgroundOutline=1;size=4;fillColor=#dae8fc;strokeColor=#6c8ebf;" parent="1" vertex="1">
          <mxGeometry x="368" y="570" width="24" height="30" as="geometry" />
        </mxCell>
        <mxCell id="lOXoc57yCbOqRMFnZguG-24" value="" style="shape=cylinder3;whiteSpace=wrap;html=1;boundedLbl=1;backgroundOutline=1;size=4;fillColor=#dae8fc;strokeColor=#6c8ebf;" parent="1" vertex="1">
          <mxGeometry x="569" y="570" width="24" height="30" as="geometry" />
        </mxCell>
        <mxCell id="lOXoc57yCbOqRMFnZguG-26" value="&lt;b&gt;&lt;font style=&quot;font-size: 18px;&quot;&gt;FUNZIONAMENTO SISTEMA&lt;/font&gt;&lt;/b&gt;" style="text;html=1;strokeColor=none;fillColor=none;align=center;verticalAlign=middle;whiteSpace=wrap;rounded=0;" parent="1" vertex="1">
          <mxGeometry x="167" y="30" width="317" height="30" as="geometry" />
        </mxCell>
        <mxCell id="p-r994WhIZOOzBjkdz7D-6" value="" style="endArrow=classic;html=1;rounded=0;curved=1;exitX=0.875;exitY=1.05;exitDx=0;exitDy=0;exitPerimeter=0;entryX=0.7;entryY=-0.01;entryDx=0;entryDy=0;entryPerimeter=0;" edge="1" parent="1" source="lOXoc57yCbOqRMFnZguG-1" target="lOXoc57yCbOqRMFnZguG-2">
          <mxGeometry width="50" height="50" relative="1" as="geometry">
            <mxPoint x="353" y="180" as="sourcePoint" />
            <mxPoint x="423" y="300" as="targetPoint" />
            <Array as="points">
              <mxPoint x="410" y="210" />
            </Array>
          </mxGeometry>
        </mxCell>
        <mxCell id="p-r994WhIZOOzBjkdz7D-7" value="&lt;b&gt;&lt;font style=&quot;font-size: 15px;&quot; color=&quot;#ff3333&quot;&gt;(1)&lt;/font&gt;&lt;/b&gt;&lt;br&gt;Inizio &lt;br&gt;operazione" style="edgeLabel;html=1;align=center;verticalAlign=middle;resizable=0;points=[];" vertex="1" connectable="0" parent="p-r994WhIZOOzBjkdz7D-6">
          <mxGeometry x="0.1555" y="-18" relative="1" as="geometry">
            <mxPoint x="7" y="8" as="offset" />
          </mxGeometry>
        </mxCell>
        <mxCell id="p-r994WhIZOOzBjkdz7D-8" value="" style="endArrow=classic;html=1;rounded=0;curved=1;exitX=0.63;exitY=-0.03;exitDx=0;exitDy=0;exitPerimeter=0;entryX=0.75;entryY=1;entryDx=0;entryDy=0;" edge="1" parent="1" source="lOXoc57yCbOqRMFnZguG-2" target="lOXoc57yCbOqRMFnZguG-1">
          <mxGeometry width="50" height="50" relative="1" as="geometry">
            <mxPoint x="363" y="163" as="sourcePoint" />
            <mxPoint x="364" y="289" as="targetPoint" />
            <Array as="points">
              <mxPoint x="300" y="220" />
            </Array>
          </mxGeometry>
        </mxCell>
        <mxCell id="p-r994WhIZOOzBjkdz7D-9" value="&lt;b&gt;&lt;font style=&quot;font-size: 15px;&quot; color=&quot;#ff3333&quot;&gt;(3)&lt;/font&gt;&lt;/b&gt;&lt;br&gt;ID ServerReplica&lt;br&gt;Es: ID = 0" style="edgeLabel;html=1;align=center;verticalAlign=middle;resizable=0;points=[];" vertex="1" connectable="0" parent="p-r994WhIZOOzBjkdz7D-8">
          <mxGeometry x="0.1555" y="-18" relative="1" as="geometry">
            <mxPoint x="-16" y="7" as="offset" />
          </mxGeometry>
        </mxCell>
        <mxCell id="p-r994WhIZOOzBjkdz7D-10" value="" style="endArrow=classic;html=1;rounded=0;exitX=0;exitY=0.5;exitDx=0;exitDy=0;entryX=0.167;entryY=0;entryDx=0;entryDy=0;entryPerimeter=0;startArrow=classic;startFill=1;edgeStyle=orthogonalEdgeStyle;" edge="1" parent="1" source="lOXoc57yCbOqRMFnZguG-1" target="lOXoc57yCbOqRMFnZguG-4">
          <mxGeometry width="50" height="50" relative="1" as="geometry">
            <mxPoint x="110" y="140" as="sourcePoint" />
            <mxPoint x="111" y="266" as="targetPoint" />
          </mxGeometry>
        </mxCell>
        <mxCell id="p-r994WhIZOOzBjkdz7D-11" value="&lt;b&gt;&lt;font style=&quot;font-size: 15px;&quot; color=&quot;#ff3333&quot;&gt;(4)&lt;/font&gt;&lt;/b&gt;&lt;br&gt;Esecuzione&lt;br&gt;operazione" style="edgeLabel;html=1;align=center;verticalAlign=middle;resizable=0;points=[];" vertex="1" connectable="0" parent="p-r994WhIZOOzBjkdz7D-10">
          <mxGeometry x="0.1555" y="-18" relative="1" as="geometry">
            <mxPoint x="19" y="14" as="offset" />
          </mxGeometry>
        </mxCell>
        <mxCell id="p-r994WhIZOOzBjkdz7D-13" value="" style="endArrow=classic;startArrow=classic;html=1;rounded=0;exitX=0.5;exitY=0;exitDx=0;exitDy=0;entryX=0.5;entryY=0;entryDx=0;entryDy=0;edgeStyle=orthogonalEdgeStyle;" edge="1" parent="1" source="lOXoc57yCbOqRMFnZguG-4" target="lOXoc57yCbOqRMFnZguG-6">
          <mxGeometry width="50" height="50" relative="1" as="geometry">
            <mxPoint x="340" y="440" as="sourcePoint" />
            <mxPoint x="390" y="390" as="targetPoint" />
            <Array as="points">
              <mxPoint x="109" y="470" />
              <mxPoint x="509" y="470" />
            </Array>
          </mxGeometry>
        </mxCell>
        <mxCell id="p-r994WhIZOOzBjkdz7D-16" value="" style="endArrow=classic;startArrow=classic;html=1;rounded=0;curved=1;exitX=0.5;exitY=1;exitDx=0;exitDy=0;entryX=0.5;entryY=0;entryDx=0;entryDy=0;" edge="1" parent="1" source="lOXoc57yCbOqRMFnZguG-2" target="lOXoc57yCbOqRMFnZguG-5">
          <mxGeometry width="50" height="50" relative="1" as="geometry">
            <mxPoint x="330" y="400" as="sourcePoint" />
            <mxPoint x="380" y="350" as="targetPoint" />
          </mxGeometry>
        </mxCell>
        <mxCell id="p-r994WhIZOOzBjkdz7D-17" value="&lt;b&gt;&lt;font style=&quot;font-size: 15px;&quot; color=&quot;#ff3333&quot;&gt;(2)&lt;/font&gt;&lt;/b&gt;&lt;br&gt;Controllo quali ServerReplica &lt;br&gt;sono raggiungibili" style="edgeLabel;html=1;align=center;verticalAlign=middle;resizable=0;points=[];" vertex="1" connectable="0" parent="1">
          <mxGeometry x="259.9962620794506" y="420.0036140768125" as="geometry">
            <mxPoint x="48" y="10" as="offset" />
          </mxGeometry>
        </mxCell>
        <mxCell id="p-r994WhIZOOzBjkdz7D-18" value="&lt;b&gt;&lt;font style=&quot;font-size: 15px;&quot; color=&quot;#ff3333&quot;&gt;(5)&lt;/font&gt;&lt;/b&gt;&lt;br&gt;Se necessario propago l&#39;operazione&lt;br&gt;a tutti gli altri 2 ServerReplica" style="edgeLabel;html=1;align=center;verticalAlign=middle;resizable=0;points=[];" vertex="1" connectable="0" parent="1">
          <mxGeometry x="269.9962620794506" y="620.0036140768125" as="geometry">
            <mxPoint x="48" y="10" as="offset" />
          </mxGeometry>
        </mxCell>
        <mxCell id="p-r994WhIZOOzBjkdz7D-19" value="" style="endArrow=none;html=1;rounded=0;curved=1;exitX=0.25;exitY=0;exitDx=0;exitDy=0;entryX=0;entryY=1;entryDx=0;entryDy=0;startArrow=classic;startFill=1;endFill=0;" edge="1" parent="1" source="lOXoc57yCbOqRMFnZguG-2" target="lOXoc57yCbOqRMFnZguG-1">
          <mxGeometry width="50" height="50" relative="1" as="geometry">
            <mxPoint x="348" y="287" as="sourcePoint" />
            <mxPoint x="348" y="160" as="targetPoint" />
            <Array as="points">
              <mxPoint x="200" y="220" />
            </Array>
          </mxGeometry>
        </mxCell>
        <mxCell id="p-r994WhIZOOzBjkdz7D-20" value="&lt;b&gt;&lt;font style=&quot;font-size: 15px;&quot; color=&quot;#ff3333&quot;&gt;(6)&lt;/font&gt;&lt;/b&gt;&lt;br&gt;Termina&lt;br&gt;operazione" style="edgeLabel;html=1;align=center;verticalAlign=middle;resizable=0;points=[];" vertex="1" connectable="0" parent="p-r994WhIZOOzBjkdz7D-19">
          <mxGeometry x="0.1555" y="-18" relative="1" as="geometry">
            <mxPoint x="-4" y="3" as="offset" />
          </mxGeometry>
        </mxCell>
      </root>
    </mxGraphModel>
  </diagram>
</mxfile>
